<svg xmlns="http://www.w3.org/2000/svg" xmlns:xlink="http://www.w3.org/1999/xlink" width="500" zoomAndPan="magnify" viewBox="0 0 375 374.999991" height="500" preserveAspectRatio="xMidYMid meet" version="1.0"><defs><clipPath id="692b47f4ea"><path d="M 165.398438 157.511719 L 209.648438 157.511719 L 209.648438 217.511719 L 165.398438 217.511719 Z M 165.398438 157.511719 " clip-rule="nonzero"/></clipPath></defs><rect x="-37.5" width="450" fill="#ffffff" y="-37.499999" height="449.999989" fill-opacity="1"/><rect x="-37.5" width="450" fill="#ededed" y="-37.499999" height="449.999989" fill-opacity="1"/><g clip-path="url(#692b47f4ea)"><path fill="#5b5a5e" d="M 187.523438 164.714844 C 195.070312 164.714844 201.1875 170.828125 201.1875 178.371094 C 201.1875 185.910156 195.070312 192.023438 187.523438 192.023438 C 179.976562 192.023438 173.859375 185.910156 173.859375 178.371094 C 173.859375 170.828125 179.976562 164.714844 187.523438 164.714844 Z M 187.523438 199.269531 L 178.515625 217.511719 L 174.992188 208.101562 L 165.398438 211.09375 L 174.015625 193.640625 L 172.761719 193.121094 L 169.707031 185.746094 L 166.648438 178.371094 L 169.707031 170.996094 L 172.761719 163.621094 L 180.140625 160.566406 L 187.523438 157.511719 L 202.28125 163.621094 L 205.339844 170.996094 L 208.394531 178.371094 L 205.339844 185.746094 L 202.28125 193.121094 L 201.03125 193.640625 L 209.648438 211.09375 L 200.050781 208.101562 L 196.527344 217.511719 Z M 178.78125 178.320312 L 182.816406 178.320312 L 184.828125 182.628906 L 192.226562 170.304688 L 196.261719 170.304688 L 186.578125 186.4375 L 182.542969 186.4375 L 182.570312 186.386719 L 182.546875 186.386719 Z M 187.523438 162.714844 C 196.175781 162.714844 203.191406 169.722656 203.191406 178.371094 C 203.191406 187.015625 196.175781 194.027344 187.523438 194.027344 C 178.871094 194.027344 171.855469 187.015625 171.855469 178.371094 C 171.855469 169.722656 178.871094 162.714844 187.523438 162.714844 Z M 187.523438 162.714844 " fill-opacity="1" fill-rule="evenodd"/></g></svg>