<svg xmlns="http://www.w3.org/2000/svg" xmlns:xlink="http://www.w3.org/1999/xlink" width="500" zoomAndPan="magnify" viewBox="0 0 375 374.999991" height="500" preserveAspectRatio="xMidYMid meet" version="1.0"><defs><clipPath id="c4118874f0"><path d="M 159.4375 161.363281 L 215.6875 161.363281 L 215.6875 217.613281 L 159.4375 217.613281 Z M 159.4375 161.363281 " clip-rule="nonzero"/></clipPath></defs><rect x="-37.5" width="450" fill="#ffffff" y="-37.499999" height="449.999989" fill-opacity="1"/><rect x="-37.5" width="450" fill="#ededed" y="-37.499999" height="449.999989" fill-opacity="1"/><g clip-path="url(#c4118874f0)"><path fill="#5b5a5e" d="M 187.5625 217.613281 C 203.097656 217.613281 215.6875 205.027344 215.6875 189.488281 C 215.6875 173.953125 203.097656 161.363281 187.5625 161.363281 C 172.027344 161.363281 159.4375 173.953125 159.4375 189.488281 C 159.4375 205.027344 172.027344 217.613281 187.5625 217.613281 Z M 175.441406 201.074219 L 176.847656 197.996094 C 177.050781 197.59375 177.316406 197.324219 177.71875 197.191406 C 177.851562 197.125 178.054688 197.125 178.1875 197.125 C 178.457031 197.125 178.65625 197.191406 178.925781 197.324219 C 181 198.464844 183.878906 199.132812 186.492188 199.132812 C 189.570312 199.132812 191.847656 197.859375 191.847656 196.121094 C 191.847656 194.980469 191.179688 193.640625 186.425781 192.101562 C 181.199219 190.496094 175.910156 188.082031 175.910156 182.726562 C 175.910156 178.640625 178.855469 175.496094 183.8125 174.222656 L 184.550781 174.019531 L 184.550781 170.671875 C 184.550781 169.871094 185.21875 169.199219 186.023438 169.199219 L 189.570312 169.199219 C 190.375 169.199219 191.042969 169.871094 191.042969 170.671875 L 191.042969 173.6875 L 191.914062 173.820312 C 194.058594 174.089844 195.933594 174.625 197.605469 175.425781 C 197.941406 175.628906 198.277344 175.894531 198.410156 176.296875 C 198.542969 176.699219 198.542969 177.101562 198.34375 177.4375 L 196.9375 180.382812 C 196.667969 180.917969 196.132812 181.253906 195.597656 181.253906 C 195.398438 181.253906 195.195312 181.1875 194.996094 181.121094 C 194.058594 180.71875 191.847656 179.714844 188.367188 179.714844 C 185.21875 179.714844 183.8125 180.917969 183.8125 182.191406 C 183.8125 183.53125 185.285156 184.46875 189.90625 186.007812 C 194.792969 187.613281 199.816406 190.027344 199.816406 195.851562 C 199.816406 199 197.605469 203.21875 191.511719 204.757812 L 190.710938 204.890625 L 190.710938 208.375 C 190.710938 209.175781 190.039062 209.847656 189.238281 209.847656 L 185.621094 209.847656 C 184.816406 209.847656 184.148438 209.175781 184.148438 208.375 L 184.148438 205.160156 L 183.277344 205.09375 C 180.53125 204.757812 177.917969 204.019531 176.179688 203.015625 C 175.375 202.613281 175.105469 201.8125 175.441406 201.074219 Z M 175.441406 201.074219 " fill-opacity="1" fill-rule="nonzero"/></g></svg>