<svg xmlns="http://www.w3.org/2000/svg" xmlns:xlink="http://www.w3.org/1999/xlink" width="500" zoomAndPan="magnify" viewBox="0 0 375 374.999991" height="500" preserveAspectRatio="xMidYMid meet" version="1.0"><defs><clipPath id="a8dc6d0b9c"><path d="M 159.289062 159.289062 L 215.539062 159.289062 L 215.539062 215.539062 L 159.289062 215.539062 Z M 159.289062 159.289062 " clip-rule="nonzero"/></clipPath></defs><rect x="-37.5" width="450" fill="#ffffff" y="-37.499999" height="449.999989" fill-opacity="1"/><rect x="-37.5" width="450" fill="#ededed" y="-37.499999" height="449.999989" fill-opacity="1"/><g clip-path="url(#a8dc6d0b9c)"><path fill="#5b5a5e" d="M 187.414062 159.289062 C 171.890625 159.289062 159.289062 171.875 159.289062 187.414062 C 159.289062 202.953125 171.890625 215.539062 187.414062 215.539062 C 202.941406 215.539062 215.539062 202.953125 215.539062 187.414062 C 215.539062 171.875 202.941406 159.289062 187.414062 159.289062 Z M 190.226562 201.476562 L 184.601562 201.476562 L 184.601562 195.851562 L 190.226562 195.851562 Z M 190.226562 190.226562 L 184.601562 190.226562 L 184.601562 173.351562 L 190.226562 173.351562 Z M 190.226562 190.226562 " fill-opacity="1" fill-rule="nonzero"/></g></svg>