<svg xmlns="http://www.w3.org/2000/svg" xmlns:xlink="http://www.w3.org/1999/xlink" width="500" zoomAndPan="magnify" viewBox="0 0 375 374.999991" height="500" preserveAspectRatio="xMidYMid meet" version="1.0"><defs><clipPath id="b13025be0f"><path d="M 150.496094 154.519531 L 224.746094 154.519531 L 224.746094 220.519531 L 150.496094 220.519531 Z M 150.496094 154.519531 " clip-rule="nonzero"/></clipPath></defs><rect x="-37.5" width="450" fill="#ffffff" y="-37.499999" height="449.999989" fill-opacity="1"/><rect x="-37.5" width="450" fill="#ffffff" y="-37.499999" height="449.999989" fill-opacity="1"/><rect x="-37.5" width="450" fill="#ededed" y="-37.499999" height="449.999989" fill-opacity="1"/><g clip-path="url(#b13025be0f)"><path fill="#5b5a5e" d="M 156.613281 200.667969 C 153.699219 193.886719 153.117188 186.292969 155.050781 179.09375 C 158.878906 164.851562 171.691406 154.875 186.46875 154.621094 C 192.082031 154.523438 197.632812 155.851562 202.59375 158.480469 C 203.605469 159.015625 203.988281 160.269531 203.453125 161.28125 C 202.914062 162.289062 201.65625 162.671875 200.644531 162.136719 C 196.320312 159.847656 191.433594 158.671875 186.535156 158.753906 C 173.617188 158.976562 162.40625 167.710938 159.0625 180.164062 C 157.402344 186.339844 157.855469 192.84375 160.277344 198.6875 L 160.230469 195.453125 C 160.214844 194.308594 161.132812 193.371094 162.277344 193.355469 C 163.421875 193.34375 164.359375 194.257812 164.375 195.398438 L 164.535156 206.5 C 164.539062 206.890625 164.445312 207.277344 164.242188 207.617188 C 163.65625 208.589844 162.375 208.910156 161.398438 208.332031 L 151.8125 202.628906 C 150.832031 202.046875 150.511719 200.765625 151.097656 199.792969 C 151.679688 198.816406 152.960938 198.496094 153.9375 199.078125 Z M 193.976562 180.664062 L 187.496094 184.199219 L 193.835938 187.679688 L 200.15625 184.207031 Z M 179.730469 179.929688 L 186.066406 183.410156 L 192.574219 179.859375 L 186.402344 176.316406 Z M 178.132812 187.738281 L 184.628906 184.195312 L 178.285156 180.710938 L 171.632812 184.3125 Z M 179.597656 188.507812 L 186.105469 191.933594 L 192.40625 188.46875 L 186.058594 184.980469 Z M 185.816406 213.058594 L 185.816406 196.242188 L 179.640625 201.820312 L 179.644531 201.820312 C 179.40625 202.03125 179.066406 202.054688 178.808594 201.894531 L 170.066406 197.105469 L 170.066406 204.652344 Z M 193.992188 201.703125 Z M 187.199219 196.242188 L 187.199219 212.757812 L 202.949219 204.550781 L 202.949219 196.398438 L 193.992188 201.703125 C 193.710938 201.871094 193.363281 201.816406 193.144531 201.59375 Z M 168.695312 184.589844 Z M 186.972656 194.179688 Z M 185.789062 193.324219 L 169.886719 184.949219 C 169.75 184.890625 169.632812 184.789062 169.558594 184.648438 C 169.375 184.3125 169.5 183.894531 169.835938 183.714844 L 186.054688 174.9375 C 185.984375 174.894531 185.917969 174.839844 185.867188 174.769531 L 180.285156 167.714844 L 163.117188 176.921875 L 168.699219 183.660156 C 168.9375 183.921875 168.941406 184.324219 168.695312 184.589844 L 162.457031 191.367188 L 179.082031 200.46875 L 186 194.222656 C 186.042969 194.175781 186.089844 194.136719 186.144531 194.105469 C 186.253906 194.035156 186.378906 194 186.507812 194 C 186.6875 194 186.847656 194.066406 186.972656 194.179688 C 186.980469 194.1875 186.988281 194.195312 187 194.203125 L 193.722656 200.257812 L 208.910156 191.261719 L 203.0625 184.617188 C 202.804688 184.371094 202.777344 183.96875 203.003906 183.6875 L 203.007812 183.6875 L 208.816406 176.53125 L 192.4375 167.8125 L 186.976562 174.742188 C 186.9375 174.792969 186.890625 174.84375 186.835938 174.886719 C 186.8125 174.90625 186.785156 174.921875 186.761719 174.9375 L 194.304688 179.265625 C 194.320312 179.273438 194.335938 179.28125 194.351562 179.292969 L 201.851562 183.59375 C 201.980469 183.652344 202.09375 183.753906 202.167969 183.886719 C 202.351562 184.222656 202.230469 184.640625 201.894531 184.824219 L 186.484375 193.296875 C 186.28125 193.425781 186.015625 193.445312 185.789062 193.324219 Z M 218.617188 174.375 C 221.53125 181.15625 222.109375 188.75 220.175781 195.949219 C 216.351562 210.191406 203.535156 220.167969 188.761719 220.421875 C 183.148438 220.519531 177.597656 219.191406 172.636719 216.5625 C 171.625 216.027344 171.242188 214.773438 171.777344 213.761719 C 172.3125 212.753906 173.570312 212.367188 174.585938 212.90625 C 178.90625 215.195312 183.796875 216.371094 188.691406 216.289062 C 201.609375 216.0625 212.824219 207.332031 216.167969 194.878906 C 217.828125 188.699219 217.375 182.195312 214.953125 176.355469 L 215 179.589844 C 215.015625 180.734375 214.097656 181.671875 212.949219 181.683594 C 211.808594 181.699219 210.871094 180.785156 210.855469 179.644531 L 210.695312 168.542969 C 210.691406 168.152344 210.785156 167.765625 210.988281 167.425781 C 211.574219 166.453125 212.851562 166.128906 213.832031 166.710938 L 223.417969 172.414062 C 224.394531 172.996094 224.71875 174.273438 224.132812 175.25 C 223.546875 176.226562 222.269531 176.546875 221.289062 175.964844 Z M 218.617188 174.375 " fill-opacity="1" fill-rule="evenodd"/></g></svg>