<svg xmlns="http://www.w3.org/2000/svg" xmlns:xlink="http://www.w3.org/1999/xlink" width="500" zoomAndPan="magnify" viewBox="0 0 375 374.999991" height="500" preserveAspectRatio="xMidYMid meet" version="1.0"><defs><clipPath id="ab63316ccb"><path d="M 159 153.757812 L 215.980469 153.757812 L 215.980469 215.257812 L 159 215.257812 Z M 159 153.757812 " clip-rule="nonzero"/></clipPath></defs><rect x="-37.5" width="450" fill="#ffffff" y="-37.499999" height="449.999989" fill-opacity="1"/><rect x="-37.5" width="450" fill="#ededed" y="-37.499999" height="449.999989" fill-opacity="1"/><g clip-path="url(#ab63316ccb)"><path fill="#5b5a5e" d="M 211.183594 186.355469 C 207.574219 200.5 199.601562 209.511719 187.480469 213.152344 C 175.375 209.515625 167.40625 200.523438 163.789062 186.410156 C 161.523438 177.570312 161.761719 169.355469 161.921875 166.683594 C 173.234375 166.324219 182.675781 159.628906 187.480469 156.132812 C 192.257812 159.597656 201.722656 166.324219 213.039062 166.683594 C 213.199219 169.347656 213.4375 177.523438 211.183594 186.355469 Z M 214.996094 165.578125 C 214.945312 165.054688 214.507812 164.660156 213.984375 164.660156 C 202.695312 164.660156 193.402344 157.910156 188.40625 154.285156 L 188.074219 154.042969 C 187.71875 153.785156 187.238281 153.785156 186.882812 154.046875 L 186.625 154.234375 C 181.984375 157.617188 172.324219 164.660156 160.972656 164.660156 C 160.453125 164.660156 160.015625 165.054688 159.960938 165.578125 C 159.921875 165.988281 158.976562 175.792969 161.804688 186.863281 C 165.578125 201.652344 174.359375 211.449219 187.195312 215.195312 C 187.289062 215.222656 187.382812 215.238281 187.480469 215.238281 C 187.574219 215.238281 187.671875 215.222656 187.765625 215.195312 C 200.597656 211.449219 209.378906 201.652344 213.15625 186.863281 C 215.980469 175.792969 215.039062 165.988281 214.996094 165.578125 " fill-opacity="1" fill-rule="nonzero"/></g><path fill="#5b5a5e" d="M 198.714844 176.558594 L 185.664062 193.605469 C 185.324219 194.050781 184.820312 194.335938 184.265625 194.402344 C 184.1875 194.410156 184.105469 194.414062 184.027344 194.414062 C 183.554688 194.414062 183.089844 194.25 182.71875 193.945312 L 176.144531 188.542969 C 175.261719 187.820312 175.132812 186.515625 175.855469 185.628906 C 176.578125 184.742188 177.878906 184.613281 178.761719 185.339844 L 183.6875 189.386719 L 195.4375 174.03125 C 196.132812 173.125 197.429688 172.953125 198.332031 173.652344 C 199.238281 174.347656 199.40625 175.648438 198.714844 176.558594 Z M 187.480469 160.117188 C 183.070312 163.308594 175.042969 168.753906 165.386719 169.347656 C 165.132812 176.140625 165.59375 202.484375 187.480469 209.273438 C 209.359375 202.484375 209.824219 176.140625 209.570312 169.347656 C 199.914062 168.75 191.867188 163.289062 187.480469 160.117188 " fill-opacity="1" fill-rule="nonzero"/></svg>