<svg xmlns="http://www.w3.org/2000/svg" xmlns:xlink="http://www.w3.org/1999/xlink" width="500" zoomAndPan="magnify" viewBox="0 0 375 374.999991" height="500" preserveAspectRatio="xMidYMid meet" version="1.0"><defs><clipPath id="bdddf97c9e"><path d="M 138.722656 145.917969 L 236.222656 145.917969 L 236.222656 214 L 138.722656 214 Z M 138.722656 145.917969 " clip-rule="nonzero"/></clipPath><clipPath id="ec6c287ad6"><path d="M 161 219 L 171 219 L 171 229.167969 L 161 229.167969 Z M 161 219 " clip-rule="nonzero"/></clipPath><clipPath id="a14d8dbc55"><path d="M 183 219 L 194 219 L 194 229.167969 L 183 229.167969 Z M 183 219 " clip-rule="nonzero"/></clipPath></defs><g clip-path="url(#bdddf97c9e)"><path fill="#100f0d" d="M 153.859375 193.046875 L 144.460938 161.628906 L 155.90625 161.628906 C 155.921875 161.699219 155.9375 161.769531 155.953125 161.84375 C 156.382812 163.632812 157.957031 167.046875 166.601562 175.988281 C 171.195312 180.742188 175.679688 184.851562 175.726562 184.894531 C 176.183594 185.3125 176.761719 185.519531 177.339844 185.519531 C 177.917969 185.519531 178.5 185.3125 178.953125 184.890625 C 179 184.851562 183.484375 180.742188 188.074219 175.988281 C 196.714844 167.046875 198.289062 163.632812 198.722656 161.84375 C 198.742188 161.773438 198.753906 161.699219 198.769531 161.628906 L 210.375 161.628906 L 200.582031 193.046875 Z M 161.566406 154.550781 C 162.699219 152.691406 164.484375 151.386719 166.59375 150.875 C 167.046875 150.765625 167.496094 150.710938 167.933594 150.710938 C 171.363281 150.710938 173.984375 154.035156 175.066406 157.324219 C 175.390625 158.308594 176.304688 158.976562 177.339844 158.976562 C 178.375 158.976562 179.292969 158.308594 179.613281 157.324219 C 180.695312 154.035156 183.316406 150.710938 186.742188 150.710938 C 187.179688 150.710938 187.632812 150.765625 188.082031 150.875 C 190.191406 151.386719 191.980469 152.691406 193.109375 154.550781 C 193.945312 155.925781 194.347656 157.476562 194.296875 159.046875 C 194.292969 159.109375 194.289062 159.167969 194.289062 159.230469 C 194.289062 159.230469 194.289062 159.234375 194.289062 159.234375 C 194.261719 159.730469 194.191406 160.222656 194.070312 160.714844 C 193.90625 161.394531 192.738281 164.261719 184.648438 172.640625 C 181.816406 175.570312 179.027344 178.253906 177.339844 179.84375 C 175.652344 178.253906 172.859375 175.570312 170.027344 172.636719 C 161.933594 164.265625 160.769531 161.394531 160.605469 160.714844 C 160.09375 158.597656 160.433594 156.410156 161.566406 154.550781 Z M 233.804688 145.914062 L 217.046875 145.914062 C 216.960938 145.914062 216.875 145.917969 216.789062 145.925781 C 216.78125 145.925781 216.773438 145.929688 216.765625 145.929688 C 216.695312 145.9375 216.628906 145.949219 216.558594 145.960938 C 216.523438 145.96875 216.484375 145.980469 216.445312 145.988281 C 216.410156 146 216.375 146.007812 216.335938 146.015625 C 216.289062 146.03125 216.242188 146.050781 216.199219 146.066406 C 216.171875 146.078125 216.148438 146.085938 216.121094 146.09375 C 216.074219 146.113281 216.03125 146.136719 215.984375 146.15625 C 215.960938 146.171875 215.933594 146.179688 215.910156 146.195312 C 215.871094 146.214844 215.835938 146.238281 215.796875 146.261719 C 215.769531 146.277344 215.738281 146.296875 215.710938 146.316406 C 215.679688 146.335938 215.652344 146.355469 215.621094 146.378906 C 215.585938 146.402344 215.554688 146.425781 215.519531 146.453125 C 215.5 146.472656 215.480469 146.492188 215.457031 146.507812 C 215.421875 146.542969 215.382812 146.574219 215.347656 146.609375 C 215.332031 146.625 215.316406 146.640625 215.300781 146.660156 C 215.265625 146.699219 215.226562 146.738281 215.191406 146.78125 C 215.175781 146.796875 215.164062 146.8125 215.152344 146.832031 C 215.117188 146.875 215.085938 146.917969 215.050781 146.964844 C 215.035156 146.988281 215.023438 147.015625 215.007812 147.039062 C 214.980469 147.082031 214.957031 147.121094 214.933594 147.160156 C 214.90625 147.210938 214.878906 147.265625 214.855469 147.320312 C 214.847656 147.335938 214.839844 147.351562 214.832031 147.371094 C 214.796875 147.449219 214.769531 147.527344 214.742188 147.609375 L 211.871094 156.832031 L 198.945312 156.832031 C 198.6875 155.160156 198.101562 153.542969 197.199219 152.054688 C 195.402344 149.101562 192.5625 147.027344 189.207031 146.214844 C 188.390625 146.015625 187.558594 145.914062 186.742188 145.914062 C 183.082031 145.914062 179.695312 147.90625 177.339844 151.242188 C 174.984375 147.90625 171.597656 145.914062 167.933594 145.914062 C 167.117188 145.914062 166.289062 146.015625 165.46875 146.214844 C 162.113281 147.027344 159.277344 149.101562 157.480469 152.054688 C 156.574219 153.542969 155.988281 155.160156 155.730469 156.832031 L 141.246094 156.832031 C 140.488281 156.832031 139.773438 157.191406 139.324219 157.800781 C 138.871094 158.40625 138.734375 159.191406 138.949219 159.917969 L 149.78125 196.132812 C 150.085938 197.148438 151.019531 197.839844 152.078125 197.839844 L 199.089844 197.839844 L 195.777344 208.460938 L 158.058594 208.460938 C 156.734375 208.460938 155.664062 209.535156 155.664062 210.859375 C 155.664062 212.183594 156.734375 213.257812 158.058594 213.257812 L 197.539062 213.257812 C 198.585938 213.257812 199.511719 212.574219 199.824219 211.574219 L 204.617188 196.199219 C 204.625 196.171875 204.632812 196.144531 204.644531 196.113281 L 218.792969 150.710938 L 233.804688 150.710938 C 235.125 150.710938 236.199219 149.636719 236.199219 148.3125 C 236.199219 146.988281 235.125 145.914062 233.804688 145.914062 " fill-opacity="1" fill-rule="nonzero"/></g><g clip-path="url(#ec6c287ad6)"><path fill="#100f0d" d="M 166.003906 224.539062 C 165.964844 224.539062 165.929688 224.5 165.929688 224.457031 C 165.929688 224.417969 165.964844 224.378906 166.003906 224.378906 C 166.046875 224.378906 166.085938 224.414062 166.085938 224.457031 C 166.085938 224.5 166.046875 224.539062 166.003906 224.539062 Z M 166.003906 219.742188 C 163.410156 219.742188 161.296875 221.859375 161.296875 224.457031 C 161.296875 227.058594 163.410156 229.171875 166.003906 229.171875 C 168.601562 229.171875 170.714844 227.058594 170.714844 224.457031 C 170.714844 221.859375 168.601562 219.742188 166.003906 219.742188 " fill-opacity="1" fill-rule="nonzero"/></g><g clip-path="url(#a14d8dbc55)"><path fill="#100f0d" d="M 188.667969 224.539062 C 188.625 224.539062 188.589844 224.5 188.589844 224.457031 C 188.589844 224.414062 188.625 224.378906 188.667969 224.378906 C 188.710938 224.378906 188.75 224.414062 188.75 224.457031 C 188.75 224.5 188.710938 224.539062 188.667969 224.539062 Z M 188.667969 219.742188 C 186.074219 219.742188 183.960938 221.859375 183.960938 224.457031 C 183.960938 227.058594 186.074219 229.171875 188.667969 229.171875 C 191.265625 229.171875 193.375 227.058594 193.375 224.457031 C 193.375 221.859375 191.265625 219.742188 188.667969 219.742188 " fill-opacity="1" fill-rule="nonzero"/></g></svg>