<svg xmlns="http://www.w3.org/2000/svg" xmlns:xlink="http://www.w3.org/1999/xlink" width="500" zoomAndPan="magnify" viewBox="0 0 375 374.999991" height="500" preserveAspectRatio="xMidYMid meet" version="1.0"><defs><clipPath id="12ad715fa6"><path d="M 142.796875 145.546875 L 232.097656 145.546875 L 232.097656 229.484375 L 142.796875 229.484375 Z M 142.796875 145.546875 " clip-rule="nonzero"/></clipPath></defs><g clip-path="url(#12ad715fa6)"><path fill="#040606" d="M 206.933594 145.554688 C 195.511719 145.554688 187.449219 153.964844 187.449219 153.964844 C 187.449219 153.964844 179.386719 145.554688 167.960938 145.554688 C 157.640625 145.554688 142.796875 152.027344 142.796875 171.976562 C 142.796875 194.835938 161.191406 209.152344 187.449219 229.484375 C 213.695312 209.152344 232.097656 194.835938 232.097656 171.976562 C 232.097656 152.027344 217.25 145.5625 206.933594 145.5625 Z M 206.933594 151.550781 C 208.898438 151.550781 226.113281 152.125 226.113281 171.976562 C 226.113281 190.988281 210.875 203.71875 187.449219 221.902344 C 164.019531 203.71875 148.785156 190.988281 148.785156 171.976562 C 148.785156 152.125 165.996094 151.550781 167.960938 151.550781 C 176.585938 151.550781 183.09375 158.074219 183.136719 158.121094 L 187.421875 162.539062 L 191.738281 158.144531 C 191.808594 158.074219 198.308594 151.550781 206.933594 151.550781 " fill-opacity="1" fill-rule="nonzero"/></g></svg>