<svg xmlns="http://www.w3.org/2000/svg" xmlns:xlink="http://www.w3.org/1999/xlink" width="500" zoomAndPan="magnify" viewBox="0 0 375 374.999991" height="500" preserveAspectRatio="xMidYMid meet" version="1.0"><defs><clipPath id="b87fb0a51b"><path d="M 147.175781 145.546875 L 228.175781 145.546875 L 228.175781 226.546875 L 147.175781 226.546875 Z M 147.175781 145.546875 " clip-rule="nonzero"/></clipPath></defs><g clip-path="url(#b87fb0a51b)"><path fill="#000000" d="M 216.3125 157.40625 C 208.664062 149.757812 198.492188 145.546875 187.675781 145.546875 C 176.855469 145.546875 166.6875 149.757812 159.039062 157.40625 C 151.386719 165.054688 147.175781 175.226562 147.175781 186.042969 C 147.175781 196.863281 151.386719 207.03125 159.039062 214.679688 C 166.6875 222.332031 176.855469 226.542969 187.675781 226.542969 C 198.492188 226.542969 208.664062 222.332031 216.3125 214.679688 C 223.960938 207.03125 228.175781 196.863281 228.175781 186.042969 C 228.175781 175.226562 223.960938 165.054688 216.3125 157.40625 Z M 160.875 159.246094 C 168.035156 152.085938 177.550781 148.144531 187.675781 148.144531 C 197.796875 148.144531 207.316406 152.085938 214.472656 159.246094 C 221.632812 166.402344 225.574219 175.921875 225.574219 186.042969 C 225.574219 194.460938 222.847656 202.457031 217.816406 209.027344 C 213.8125 203.425781 207.417969 200.121094 200.472656 200.121094 L 174.875 200.121094 C 167.929688 200.121094 161.535156 203.425781 157.53125 209.027344 C 152.5 202.457031 149.773438 194.460938 149.773438 186.042969 C 149.773438 175.921875 153.714844 166.402344 160.875 159.246094 Z M 187.675781 197.984375 C 198.082031 197.984375 206.546875 189.519531 206.546875 179.113281 C 206.546875 168.707031 198.082031 160.242188 187.675781 160.242188 C 177.269531 160.242188 168.804688 168.707031 168.804688 179.113281 C 168.804688 189.519531 177.269531 197.984375 187.675781 197.984375 Z M 187.675781 197.984375 " fill-opacity="1" fill-rule="nonzero"/></g></svg>