<svg xmlns="http://www.w3.org/2000/svg" xmlns:xlink="http://www.w3.org/1999/xlink" width="500" zoomAndPan="magnify" viewBox="0 0 375 374.999991" height="500" preserveAspectRatio="xMidYMid meet" version="1.0"><defs><clipPath id="d16165b0a1"><path d="M 147.175781 147.175781 L 228.175781 147.175781 L 228.175781 228.175781 L 147.175781 228.175781 Z M 147.175781 147.175781 " clip-rule="nonzero"/></clipPath></defs><path fill="#1b1c1f" d="M 180.777344 178.4375 C 173.210938 182.804688 184.757812 204.449219 193.039062 199.667969 L 200.714844 212.96875 C 197.222656 214.984375 194.265625 216.257812 190.214844 213.941406 C 178.96875 207.511719 166.589844 186.078125 166.941406 173.292969 C 167.0625 168.851562 169.679688 167.113281 173.101562 165.136719 Z M 180.777344 178.4375 " fill-opacity="1" fill-rule="evenodd"/><path fill="#1b1c1f" d="M 183.953125 178.074219 C 183.136719 178.546875 182.082031 178.265625 181.609375 177.449219 L 174.371094 164.910156 C 173.902344 164.09375 174.183594 163.039062 175 162.570312 L 178.804688 160.371094 C 179.621094 159.902344 180.675781 160.183594 181.144531 161 L 188.382812 173.535156 C 188.855469 174.355469 188.574219 175.40625 187.757812 175.878906 Z M 183.953125 178.074219 " fill-opacity="1" fill-rule="evenodd"/><path fill="#1b1c1f" d="M 203.726562 212.324219 C 202.90625 212.796875 201.855469 212.511719 201.382812 211.695312 L 194.144531 199.160156 C 193.671875 198.339844 193.957031 197.289062 194.773438 196.816406 L 198.578125 194.621094 C 199.394531 194.148438 200.449219 194.429688 200.917969 195.25 L 208.15625 207.785156 C 208.628906 208.601562 208.347656 209.65625 207.53125 210.128906 Z M 203.726562 212.324219 " fill-opacity="1" fill-rule="evenodd"/><g clip-path="url(#d16165b0a1)"><path fill="#1b1c1f" d="M 187.664062 147.175781 L 187.664062 147.183594 C 198.847656 147.183594 208.96875 151.714844 216.289062 159.035156 C 223.609375 166.355469 228.140625 176.476562 228.140625 187.660156 L 228.148438 187.660156 L 228.148438 187.664062 L 228.140625 187.664062 C 228.140625 198.847656 223.609375 208.96875 216.289062 216.289062 C 208.96875 223.609375 198.847656 228.140625 187.664062 228.140625 L 187.664062 228.148438 L 187.660156 228.148438 L 187.660156 228.140625 C 176.476562 228.140625 166.355469 223.613281 159.035156 216.289062 C 151.714844 208.96875 147.183594 198.847656 147.183594 187.664062 L 147.175781 187.664062 L 147.175781 187.660156 L 147.183594 187.660156 C 147.183594 176.476562 151.714844 166.355469 159.035156 159.035156 C 166.355469 151.714844 176.476562 147.183594 187.660156 147.183594 L 187.660156 147.175781 Z M 187.664062 152.003906 L 187.664062 152.015625 L 187.660156 152.015625 L 187.660156 152.003906 C 177.824219 152.003906 168.914062 156 162.457031 162.457031 C 156 168.914062 152.003906 177.828125 152.003906 187.660156 L 152.015625 187.660156 L 152.015625 187.664062 L 152.003906 187.664062 C 152.003906 197.5 156 206.410156 162.457031 212.867188 C 168.914062 219.324219 177.828125 223.320312 187.664062 223.320312 L 187.664062 223.3125 L 187.664062 223.320312 C 197.5 223.320312 206.414062 219.324219 212.867188 212.867188 C 219.324219 206.410156 223.320312 197.5 223.320312 187.664062 L 223.3125 187.664062 L 223.3125 187.660156 L 223.320312 187.660156 C 223.320312 177.824219 219.328125 168.914062 212.871094 162.457031 C 206.414062 156 197.5 152.003906 187.664062 152.003906 Z M 187.664062 152.003906 " fill-opacity="1" fill-rule="nonzero"/></g></svg>