<svg xmlns="http://www.w3.org/2000/svg" xmlns:xlink="http://www.w3.org/1999/xlink" width="500" zoomAndPan="magnify" viewBox="0 0 375 374.999991" height="500" preserveAspectRatio="xMidYMid meet" version="1.0"><defs><clipPath id="2e90124d16"><path d="M 146.261719 146.261719 L 228.761719 146.261719 L 228.761719 228.761719 L 146.261719 228.761719 Z M 146.261719 146.261719 " clip-rule="nonzero"/></clipPath></defs><g clip-path="url(#2e90124d16)"><path fill="#ffffff" d="M 169.175781 146.261719 C 156.523438 146.261719 146.261719 156.523438 146.261719 169.175781 L 146.261719 205.84375 C 146.261719 218.5 156.523438 228.761719 169.175781 228.761719 L 205.84375 228.761719 C 218.5 228.761719 228.761719 218.5 228.761719 205.84375 L 228.761719 169.175781 C 228.761719 156.523438 218.5 146.261719 205.84375 146.261719 Z M 215.011719 155.425781 C 217.539062 155.425781 219.59375 157.480469 219.59375 160.011719 C 219.59375 162.539062 217.539062 164.59375 215.011719 164.59375 C 212.480469 164.59375 210.425781 162.539062 210.425781 160.011719 C 210.425781 157.480469 212.480469 155.425781 215.011719 155.425781 Z M 187.511719 164.59375 C 200.164062 164.59375 210.425781 174.855469 210.425781 187.511719 C 210.425781 200.164062 200.164062 210.425781 187.511719 210.425781 C 174.855469 210.425781 164.59375 200.164062 164.59375 187.511719 C 164.59375 174.855469 174.855469 164.59375 187.511719 164.59375 Z M 187.511719 173.761719 C 186.605469 173.761719 185.714844 173.847656 184.828125 174.023438 C 183.941406 174.199219 183.082031 174.460938 182.25 174.808594 C 181.414062 175.152344 180.621094 175.574219 179.871094 176.078125 C 179.121094 176.578125 178.425781 177.148438 177.789062 177.789062 C 177.148438 178.425781 176.578125 179.121094 176.078125 179.871094 C 175.574219 180.621094 175.152344 181.414062 174.808594 182.25 C 174.460938 183.082031 174.199219 183.941406 174.023438 184.828125 C 173.847656 185.714844 173.761719 186.605469 173.761719 187.511719 C 173.761719 188.414062 173.847656 189.308594 174.023438 190.191406 C 174.199219 191.078125 174.460938 191.9375 174.808594 192.773438 C 175.152344 193.605469 175.574219 194.398438 176.078125 195.148438 C 176.578125 195.898438 177.148438 196.59375 177.789062 197.234375 C 178.425781 197.871094 179.121094 198.441406 179.871094 198.941406 C 180.621094 199.445312 181.414062 199.867188 182.25 200.214844 C 183.082031 200.558594 183.941406 200.820312 184.828125 200.996094 C 185.714844 201.171875 186.605469 201.261719 187.511719 201.261719 C 188.414062 201.261719 189.308594 201.171875 190.191406 200.996094 C 191.078125 200.820312 191.9375 200.558594 192.773438 200.214844 C 193.605469 199.867188 194.398438 199.445312 195.148438 198.941406 C 195.898438 198.441406 196.59375 197.871094 197.234375 197.234375 C 197.871094 196.59375 198.441406 195.898438 198.941406 195.148438 C 199.445312 194.398438 199.867188 193.605469 200.214844 192.773438 C 200.558594 191.9375 200.820312 191.078125 200.996094 190.191406 C 201.171875 189.308594 201.261719 188.414062 201.261719 187.511719 C 201.261719 186.605469 201.171875 185.714844 200.996094 184.828125 C 200.820312 183.941406 200.558594 183.082031 200.214844 182.25 C 199.867188 181.414062 199.445312 180.621094 198.941406 179.871094 C 198.441406 179.121094 197.871094 178.425781 197.234375 177.789062 C 196.59375 177.148438 195.898438 176.578125 195.148438 176.078125 C 194.398438 175.574219 193.605469 175.152344 192.773438 174.808594 C 191.9375 174.460938 191.078125 174.199219 190.191406 174.023438 C 189.308594 173.847656 188.414062 173.761719 187.511719 173.761719 Z M 187.511719 173.761719 " fill-opacity="1" fill-rule="nonzero"/></g></svg>