<svg xmlns="http://www.w3.org/2000/svg" xmlns:xlink="http://www.w3.org/1999/xlink" width="500" zoomAndPan="magnify" viewBox="0 0 375 374.999991" height="500" preserveAspectRatio="xMidYMid meet" version="1.0"><defs><clipPath id="f8be66b788"><path d="M 146.261719 146.261719 L 228.761719 146.261719 L 228.761719 228.761719 L 146.261719 228.761719 Z M 146.261719 146.261719 " clip-rule="nonzero"/></clipPath></defs><g clip-path="url(#f8be66b788)"><path fill="#ffffff" d="M 228.761719 187.511719 C 228.761719 210.300781 210.300781 228.761719 187.511719 228.761719 C 164.71875 228.761719 146.261719 210.300781 146.261719 187.511719 C 146.261719 164.71875 164.71875 146.261719 187.511719 146.261719 C 210.300781 146.261719 228.761719 164.71875 228.761719 187.511719 Z M 179.960938 209.269531 C 198.253906 209.269531 208.257812 194.109375 208.257812 180.972656 C 208.257812 180.539062 208.257812 180.105469 208.238281 179.691406 C 210.175781 178.289062 211.867188 176.539062 213.207031 174.535156 C 211.433594 175.320312 209.515625 175.855469 207.496094 176.105469 C 209.558594 174.867188 211.125 172.929688 211.867188 170.597656 C 209.949219 171.730469 207.824219 172.558594 205.558594 173.011719 C 203.742188 171.070312 201.164062 169.875 198.296875 169.875 C 192.8125 169.875 188.355469 174.332031 188.355469 179.816406 C 188.355469 180.601562 188.4375 181.363281 188.625 182.085938 C 180.351562 181.671875 173.03125 177.714844 168.121094 171.691406 C 167.277344 173.15625 166.78125 174.867188 166.78125 176.683594 C 166.78125 180.125 168.535156 183.179688 171.214844 184.953125 C 169.585938 184.910156 168.0625 184.457031 166.71875 183.714844 C 166.71875 183.757812 166.71875 183.796875 166.71875 183.839844 C 166.71875 188.664062 170.144531 192.667969 174.703125 193.59375 C 173.878906 193.820312 172.988281 193.945312 172.082031 193.945312 C 171.441406 193.945312 170.824219 193.882812 170.207031 193.757812 C 171.464844 197.71875 175.136719 200.585938 179.488281 200.667969 C 176.082031 203.328125 171.792969 204.917969 167.132812 204.917969 C 166.328125 204.917969 165.542969 204.875 164.761719 204.773438 C 169.113281 207.621094 174.351562 209.269531 179.960938 209.269531 " fill-opacity="1" fill-rule="nonzero"/></g></svg>