<svg xmlns="http://www.w3.org/2000/svg" xmlns:xlink="http://www.w3.org/1999/xlink" width="500" zoomAndPan="magnify" viewBox="0 0 375 374.999991" height="500" preserveAspectRatio="xMidYMid meet" version="1.0"><defs><clipPath id="af3f71d8e4"><path d="M 168.015625 146.261719 L 207.015625 146.261719 L 207.015625 228.761719 L 168.015625 228.761719 Z M 168.015625 146.261719 " clip-rule="nonzero"/></clipPath></defs><g clip-path="url(#af3f71d8e4)"><path fill="#ffffff" d="M 198.027344 159.949219 L 207.023438 159.949219 L 207.023438 146.390625 L 195.523438 146.390625 L 195.523438 146.441406 C 180.421875 146.988281 177.320312 155.460938 177.046875 164.386719 L 177.015625 164.386719 L 177.015625 173.800781 L 168.019531 173.800781 L 168.019531 187.367188 L 177.015625 187.367188 L 177.015625 228.632812 L 193.164062 228.632812 L 193.164062 187.367188 L 204.738281 187.367188 L 207.023438 173.800781 L 193.164062 173.800781 L 193.164062 165.378906 C 193.164062 162.382812 195.164062 159.949219 198.027344 159.949219 Z M 198.027344 159.949219 " fill-opacity="1" fill-rule="nonzero"/></g></svg>